<svg xmlns="http://www.w3.org/2000/svg" height="1024" width="1172">
  <g fill="#86ab2d">
    <path d="M1158.67 561.33c4.93-.93 5.89 2.11 5.33 6.67h-6.67c-.42-3.1.22-5.12 1.34-6.67M1172 625.33c-5.96 13.07-36.44 6.04-41.33-2.66 5.33-12.6 38.54-10.4 41.33 2.66M1124 677.33c.96 7.92-7.63 7.92-6.67 0a4.98 4.98 0 016.67 0M1097.33 497.33c15.72-4 11.39 17.04 1.34 17.34-7.75.22-14.66-13.95-1.34-17.34M1066.67 672v6.67c-4.96 2.58-9.82-.11-9.34-6.67 2.52-2.64 6.3-.65 9.34 0M1046.67 632c6.34-1.96 20.17-.9 20 8-6.58 5.99-17.59-1.5-20-8M1052 678.67c4.28-1.18 2.76 3.45 5.33 4-.2 2.92-3.36 2.86-6.66 2.66-.43-3.09.21-5.12 1.33-6.66M1048 536c-1.08 1.15-3.65.79-4 2.67-9.24-3.44 3.07-13.34 4-2.67M1042.67 654.67c.52 7.18-9.56 11.54-17.34 5.33-3.1-16.41 16.66-14.79 17.34-5.33M1045.33 570.67c-4.01 2.7-13.36 1.53-12-5.34 5.9-.1 11.82-.25 12 5.34M1017.33 497.33c.62 4.18-1.16 5.95-5.33 5.34-4.15-3.68 1.65-9.48 5.33-5.34M982.67 637.33c2.24 27.82-46.23 29.47-38.67-4 1.24-5.48 5.99-8.61 12-12 17.47-5.08 25.88 6.23 26.67 16M969.33 609.33c1.64.59 2.74 1.71 2.67 4-4.63 1.16-4.57-2.05-2.67-4M932 298.67c5.24-2.58 19.63-12.79 21.33-2.67-5.7 2.3-12.73 3.27-21.33 2.67M944 669.33c.52 5.42-2.07 7.71-8 6.67-1.2-3.9-1.2-4.1 0-8 3.28-.17 6.43-.2 8 1.33M936 690.67v2.66c-6.5 1.34-2.47-7.09 0-2.66M933.33 724c.23 3.33-2.05 4.17-4 5.33-3.33.23-4.17-2.05-5.33-4-.23-3.33 2.05-4.17 4-5.33 3.33-.23 4.17 2.05 5.33 4M918.67 406.67c1.16 10.28-16.07 9.44-21.34 5.33-.36-10.44 16.43-11.4 21.34-5.33M898.67 740c-1.54-22.21 29.84-7.35 14.66 5.33h-10.66c-1.34-1.77-2.2-4.02-4-5.33M856 426.67c12.32.13 26.83-1.95 30.67 6.66-4.54 11.58-41.59 14.52-57.34 8-7.44-3.08-9.62-11.48-14.66-13.33-2.38-7.9-1.82-19.12 2.66-24 8.6-4.17 18.18-5.93 25.34-2.67 9.98 4.56 7.73 17.76 13.33 25.34M858.67 297.33c-.56-6.72 10.02-7 8 1.34-3.28.17-6.43.2-8-1.34M862.67 750.67c1.94 1.16 4.22 2 4 5.33-1.19.59-2.39 1.17-2.67 2.67-4.67-1.59-3.72-4.56-1.33-8M852 452c45.16-11.96 43.48 63.24-1.33 49.33-23.32-7.24-22.98-42.89 1.33-49.33M861.33 706.67v2.66h-4v-2.66h4M845.33 665.33c3.51-.4 4.38 1.84 4 5.34-3.49.37-5.73-.5-5.33-4 1.13.24 1.25-.52 1.33-1.34M842.67 518.67c3.89-1.96 3.89 5.96 0 4v-4M824 390.67c3.5-.4 4.37 1.84 4 5.33h-5.33c-.56-2.79.92-3.53 1.33-5.33M828 456c.61 4.16-2.85 4.27-6.67 4v-5.33c3.1-.43 5.12.21 6.67 1.33M828 337.33V340h-2.67v-2.67H828M816 484c3.05-2.9 8.32-.48 8 4-1.19.59-2.39 1.17-2.67 2.67-3.69-.47-7.85-4-5.33-6.67M817.33 257.33V260h-2.66v-2.67h2.66M818.67 558.67c-8.84 1.5-19.56-4.84-22.67-13.34 8.9 3.1 22.64 1.36 22.67 13.34M806.67 277.33c3.09.38 3.06 3.56 1.33 5.34-3.1-.38-3.07-3.56-1.33-5.34M804 304c3.5-.4 4.37 1.84 4 5.33h-5.33c-.56-2.78.92-3.53 1.33-5.33M798.67 341.33c1.64.59 2.73 1.71 2.66 4-4.62 1.16-4.57-2.05-2.66-4M798.67 828c.61 4.17-1.16 5.95-5.34 5.33-4.14-3.68 1.66-9.48 5.34-5.33M786.67 517.33c3.68-1.48 7.48-2.08 6.66 4-2.57 2.6-8.16 1.4-6.66-4M789.33 289.33c.54 5-6.06 6.88-9.33 4-.72-4.72 2.16-5.84 4-8 1.77 1.34 4.03 2.2 5.33 4M784 606.67V612h-2.67v-5.33H784M778.67 852c1.18 7.41-3.71 8.73-10.67 8-6.23-7.28 4.9-12.7 10.67-8M765.33 229.33c4.94 4.04-4.05 4.5 0 0M762.67 280c11.82 21.35-6.44 45.07-30.67 38.67-20.48-5.4-22.61-42.55 2.67-48 14.01-3.03 24.8 3.57 28 9.33M758.67 426.67c2.34.32 3.04 2.29 2.66 5.33-2.78.56-3.53-.92-5.33-1.33.47-1.75 2.35-2.1 2.67-4M761.33 389.33c.35 4.35-1.58 6.42-5.33 6.67-.59-1.19-1.17-2.39-2.67-2.67-.32-4.48 4.95-6.89 8-4M746.67 657.33c-12.36-17.09 22-17.84 9.33 0h-9.33M740 496c11.05 30.43-23.5 60.56-50.67 41.33-9.2-1.64-11.18 3.94-20 2.67-4.82-2.72-8.16-6.96-6.66-16 11.44-6.33 16.36-19.19 18.66-34.67-5.02-6.08-17.46-4.76-20-13.33 5.19-15.3 27.92-3.99 34.67 2.67 2.24-1.91-1.7-7.23 2.67-9.34 5.58-1.14 2.92 5.98 5.33 8 15.72-.85 31.83 7.18 36 18.67M729.33 428v4h-4c-.37-2.16 1.27-2.3 1.34-4h2.66M728 190.67v2.66h-2.67v-2.66H728M709.33 582.67c.62 4.17-1.16 5.94-5.33 5.33-4.15-3.68 1.65-9.48 5.33-5.33M690.67 376c1.28 21.44-16.08 37.17-34.67 37.33-25.81.23-38.67-28.9-29.33-49.33 3.33-7.28 11.97-14.84 24-17.33 19.25-4 38.76 8.62 40 29.33M689.33 561.33c.4 5.74.1 10.76-5.33 10.67-10.52-.81-4.32-18.5 5.33-10.67M684 233.33c-2.5 4.27-2.6 7.82-6.67 8-18.08.8-.81-29.49 6.67-8M672 422.67v2.66c-6.5 1.34-2.47-7.09 0-2.66M658.67 568c1.98-2.12 7.6-1.95 6.66 2.67-1.98 2.12-7.6 1.94-6.66-2.67M661.33 544c.94 4.1.94 2.56 0 6.67-6.17.57-8.97-2.23-6.66-6.67h6.66M656 674.67c5.36 7.58 2.17 16.96-4 18.66-17.3 4.78-18.47-28.04 4-18.66M650.67 318.67c3.89-1.96 3.89 5.96 0 4v-4M645.33 869.33V876c-1.82 2.97-10.08 3.92-13.33 1.33-7.44-10.44 9.08-16.53 13.33-8M634.67 437.33c4.13 8.43-9.35 5.9 0 0M632 490.67c2.92.2 2.87 3.36 2.67 6.66-4.62.94-4.79-4.68-2.67-6.66M614.67 662.67c3.96-.28 4.7 4.76 2.66 6.66-5.26-.46-5.93-4-2.66-6.66M608 554.67c4.7-1.02 5.97 3.49 4 5.33-3.5.4-4.37-1.84-4-5.33M609.33 482.67c3.9-1.96 3.9 5.96 0 4v-4M593.33 542.67c.34 6.56-.82 11.61-4 14.66 1.75 3.15 4.12 5.66 6.67 8-5.05 6.06-6.8 15.42-13.33 20-20.12-2.4-31.59 3.47-48 5.34-2.84-3.39-8.35-4.11-9.34-9.34-15.38 8.43-43.78-7.73-25.33-21.33h-9.33c.32-4.57 7.12-2.65 8-6.67-9.52-14.22 1.65-28.57 9.33-37.33.92-3.59-2.76-2.57-4-4 1.15-5.83 6.95.72 9.33-2.67 1.03-5.92-4.41-5.37-6.66-8-.58-4.32 1.76-11.53-2.67-12 3.05-1.73 7.8-6.2 12-2.66 11.77-5.56 15.48-19.19 30.67-21.34 6.94 2.39 11.17 7.5 18.66 9.34-3.78 3.96-2.73 10.5 0 14.66 5.16 1.48 4.75-4.72 8-1.33-6.36 16.27 11.72 29.65 12 48 2.31 2.57 5.98 3.8 8 6.67M592 784c16.85 11.9 6.88 44.96-16 44-14.65-12.9-8.39-46.99 16-44M589.33 337.33c.63 4.15-3.34 4.76-5.33 2.67.32-2.35 2.3-3.04 5.33-2.67"/>
    <path d="M593.33 448c-3.78 13.19-23.52 4.95-37.33 6.67-13.75 1.7-27.72 9-41.33 9.33-5.31.13-10.9-1.32-17.34 1.33-.25 5.59 6.55 4.12 5.34 10.67-.82-3.08-6.99-3.7-9.34-1.33-.5 4.96 5.4 3.48 4 9.33-5.66-.77-6.18 3.6-8 6.67-4.1 1-1.62-4.6-6.66-2.67-1.72 2.25 4.98 3.36 1.33 9.33-7.07 3.15-16.3 4.15-21.33 9.34-1.4 7.18 4.42 7.12 6.66 10.66 4.52 18.1-18.1 34.12-29.33 17.34-4.45 0-4.55 4.33-9.33 4-2.39 3.54 3.02 9.58-4 6.66 2.57 12.54 10.89 19.34 13.33 32 .41 1.82 3.33 1.11 5.33 1.34-4.44 7.94 11.42 9.2 14.67 18.66 1.65 4.83-1.85 7.86 1.33 14.67-7.2 1.19-11.29 4.35-17.33 2.67-12.04-3.35-9.27-18.18-5.33-29.34-.22-1.56-2.43-1.12-4-1.33 2.26-6.7-8.66-21.55-13.34-29.33-5.14-8.55-10.08-18.75-17.33-21.34-1.08 5.08 3.9 4.1 4 8-6.17 8.68-1.92 30.5-14.67 33.34-9.72 2.16-19.74-4.9-17.33-21.34-7.1-1.33-4.19 7.36-6.67 10.67-4.81-5.2-4.78-13.9-4-22.67-16.64-15.2-37.2 9.08-50.66 16 6.05 7.75-2.07 17.48-8 21.34-8.18-1.62-6.15-13.42-10.67-18.67 11.52-4.48 20.47-11.53 30.67-17.33-3.7-4.34-10.02-10.03-6.67-17.34-2.16-2.73-9.84.07-12-2.66 3.21-6.56 9.16-10.4 12-17.34-9.01-6.65-18.5 1.56-26.67-4-.58-5.04 2.63-6.25 4-9.33-1.98-2.01-5.97-2.03-5.33-6.67 2.16-1.84 3.28-4.72 8-4-10.24-8.06-25.35 5.12-34.67 0 1.38-8.05 7.46-16.73 0-22.66.38-5.86 6.07-6.38 8-10.67-4.28-16.36 11.32-35.17 20-52 2.79-5.39 1.36-10.28 6.67-12 5.16-.72 6.5 2.39 12 1.33.47-6.68-6.44-6-9.33-9.33 4.6-7.65-4.55-8.47-5.34-14.67 6.08-1.62 5.23 3.66 10.67 2.67.35-11.01-10.56-10.77-12-20 7.64-3.65 10.5 7.85 21.33 5.33 3.32-10.68-12.78-11.9-14.66-20-1.63-7.01 2.84-16.18 9.33-21.33v-9.33c-4.1-1-1.63 4.6-6.67 2.66.43-3.09-.21-5.12-1.33-6.66-13.21-.32-19.61-15.75-32-5.34-14.67.92-15.65-22.2-2.67-24 9.9 5.23 15.91-1.04 24 0 8.16-6.36-2.28-21.61 2.67-32 10.33-.1 12.76 7.68 20 10.67 13.24-5.35 18.19 5.84 26.67 9.33 2.17-.02-2.14-7.53 1.33-9.33h5.33c3.7 3.67-1.2 5.57-1.33 9.33 13.88 2.12 13.96 18.04 21.33 26.67 4.31-1.47 2.27-9.3 4-13.33 3.75-2.03 7.96-3.6 9.34-8-2-4.42-3.27 2.77-6.67 1.33v-9.33c13.6 3.28 15.6-12.71 22.67-20 4.42.46 2.09 7.68 2.66 12 4.87.7 5.99-5.86 9.34-2.67.96 4.08-1.36 4.85-1.34 8-2.36 2.48-3.89-.57-6.66-1.33-2.23 11.94-6.66 34.18 5.33 38.66-2.36 7.82 4.1 11.64 6.67 16 1.49 2.55-.28 7.35 4 6.67 3.97-5.37-2.46-11.72-5.34-14.67.22-12.24 5.71-19.18 12-25.33-1-8.55 1.56-13.56 1.34-21.33 4.7 2.85 1.92 13.2 2.66 20 13.42 1.04 29.4 9.01 25.34 26.66-1.64 7.15-13.47 16.06-25.34 16-.78 4.79 1.55 6.46 2.67 9.34 5.85 1.4 4.37-4.51 9.33-4 5.66 5.36-5.24 13.81 1.34 16-.31 1.92-3.98.46-4 2.66 1.78 6.74 5.45 3.36 10.66 6.67 2.56 7.23 4.88 14.68 10.67 18.67.72 5.16-3.4 5.49-4 9.33 3.3.2 6.47.25 6.67-2.67 3.86 2.67-3.84 4.94-2.67 9.34 9.64 1.64 10.21-5.79 12-12 9.7-4.54 16.19-12.26 26.67-16 1.5 7.74-11.76 12.21-9.34 25.33-12.16-6.24-18.76 8.6-30.66 10.67 2.74 7.02 3.53 16.02 16 13.33 2.13 4.45 5.32 6.21 1.33 10.67 15.48 1.25 20.03-8.42 33.33-9.34-1.4 9.71-10.77 11.46-16 17.34-.6 3.7 7.27-1.04 6.67 2.66.25 6.34-6.35-3.82-9.33 1.34-2.07 4.73 4.53.8 4 4 0 5.33-6.26 4.41-8 8 2.61 9.32 15 .84 20 0 1.36 1.74 1.3 4.92 2.66 6.66 26.2 3.08 67.3-7.78 84 10.67zM448 402.67c.3-1.04.04-2.63 1.33-2.67-4.62-5.23-1.37-5.8-2.66-10.67-4.06.91-7.6 14.96 1.33 13.34zm-72-100c3.37-3.48 4.01-14.08-2.67-14.67-3.41 2.81-2.16 10.3-5.33 13.33 4.08-.96 4.85 1.36 8 1.34zm-13.33-8c.94-6.74-1.83-9.74-2.67-14.67-8.55-2.79-18.2-18.96-28-8-1.03 5.03 1.63 6.37 1.33 10.67 7.98 5.06 21.87 10.82 29.34 12zM325.33 344c2.39-3.44 3.34-6.41-1.33-8-.3 1.04-1.12 1.55-2.67 1.33-.62 4.19 1.67 5.46 4 6.67zM324 325.33c8.15-4.84 4.07-17.13-2.67-22.66-3.65 7.22 4.11 13.33 2.67 22.66M570.67 198.67v2.66H568v-2.66h2.67"/>
    <path d="M561.33 409.33c2.83-2.32 7.06-7.97 12-4-2.61 2.72-6.69 3.98-12 4M562.67 890.67a4.98 4.98 0 016.66 0c-.02 6.21-6.64 6.21-6.66 0M561.33 373.33c.31 4.75-1.92 6.98-6.66 6.67-3.31-3.47-.28-8.1 2.66-9.33 1.75.46 2.1 2.34 4 2.66M558.67 294.67c-3.32-.55-.08-5.18 2.66-4-.46 1.74-2.34 2.09-2.66 4M553.33 757.33c6.22.03 6.22 6.64 0 6.67a4.98 4.98 0 010-6.67M548 252h4c-1.43 1.24-.41 4.92-4 4v-4M545.33 882.67c.72 6.93-2.1 10.33-5.33 13.33-7.73 1.5-8.88-3.57-12-6.67-.39-9.49 11.88-14.56 17.33-6.66M542.67 626.67a2.85 2.85 0 01-5.34 0h5.34M537.33 200c-1.02-5.5 4.55-8.4 8-5.33-1.02 4.57-3.69 7.5-8 5.33M538.67 180c8.49.53 1.89 13.63-4 8-.51-4.5 2.3-5.7 4-8M536 632c.15 9.1-15.16 4.9-9.33-2.67h8c-.22 1.55.29 2.38 1.33 2.67M532 372c6.1.9-1.07 8.07 0 0M518.67 328c2.74 3.27-5.44 6.95-8 9.33 1.84-3.93 6.16-5.4 8-9.33M509.33 385.33c3.5-.37 5.74.5 5.34 4-1.19 1.04-3.02 1.44-5.34 1.34v-5.34M510.67 476c.18 4.19-3.42 4.59-6.67 5.33.7-1.97 1.97-3.36 2.67-5.33h4M505.33 418.67c.64-4.63 5.07-3.4 8-2.67-.14 3.4-4.46 2.64-8 2.67M497.33 389.33c-2.44-10.77 9.84-9.05 9.34-1.33-2.58 3.87-5.58 4.36-9.34 1.33"/>
    <path d="M501.33 374.67c.62 4.17-1.16 5.94-5.33 5.33-4.15-3.68 1.65-9.48 5.33-5.33M494.67 662.67v2.66h-4v-2.66h4M478.67 662.67c4.28-2.14 9.56-1.83 8 5.33-4.8.36-9.23.33-8-5.33M476 765.33c2.35-4.97 9.61-4.72 10.67 1.34-.18 4.26-3.03 5.86-8 5.33-.58-2.53-2.87-3.35-2.67-6.67M473.33 702.67c7.67-.59 9.82 10.06 6.67 16-9.55 1.3-10.76-11.39-6.67-16M480 244c-.21 6.01.47 12.9-5.33 13.33-2.5-3.46-1.88-12.73 1.33-14.66 2.16-.38 2.3 1.26 4 1.33M476 342.67c1 5-1.5 6.49-5.33 6.66-2.51-2.54.78-2.41 0-6.66H476M473.33 185.33c3.9-1.96 3.9 5.96 0 4v-4M468 386.67a3.9 3.9 0 010 4v-4M468 625.33c4.61-.93 4.79 4.68 2.67 6.67-4.62.93-4.79-4.68-2.67-6.67M462.67 334.67c5.26-.92 4.36 5.61 0 5.33v-5.33M454.67 781.33c1.81 3.96 1.93 9.67-1.34 12-4.98.1-7.64-2.14-9.33-5.33.2-5.57 4.27-7.28 10.67-6.67M453.33 762.67v4h-4v-4h4M452 318.67c7.63 5.41-2.99 12.05-1.33 20-4.91-2.7-1.22-16.26 1.33-20M448 2.67c1.05 10.38-4.23 14.44-14.67 13.33-3.57-3.1-5.45-10.43-2.66-16h14.66c.28 1.5 1.48 2.08 2.67 2.67M448 904c-2.39-.17-2.81 1.63-5.33 1.33-.94-4.1-.94-2.56 0-6.66 3.38.16 5.17 1.94 5.33 5.33M448 574.67c-.25 1.08-1.33 1.33-1.33 2.66H444v-4c2.16-.37 2.3 1.27 4 1.34M442.67 562.67c.1 2.1-.64 5.08 1.33 5.33-2.73 4.75-3.7-3.27-5.33-4 .21-1.56 2.42-1.12 4-1.33M442.67 766.67v6.66c-5.4 1.5-6.59-4.09-4-6.66h4M416 225.33c6.01 1.11 3.5 10.72 4 17.34-4.19 1.48-3.52.62-6.67-1.34 4.46-5.5 2.9-11.2 2.67-16M416 592c7.73-1.04 7.92 9.01 2.67 10.67-6.3-.44-5.67-7.39-2.67-10.67M413.33 710.67c7.96-1.31 11 13.53 5.34 17.33-8 .92-7.88-12.01-5.34-17.33M406.67 274.67h4c-1.43 1.24-.42 4.92-4 4v-4M406.67 876c3.09.37 3.06 3.56 1.33 5.33-2.16-1.3-3.07-3.56-1.33-5.33M394.67 581.33v4h-4v-4h4M392 120c1.5 18.53-18 11.25-17.33-1.33 4.81 2.12 12.94-6.91 17.33 1.33M388 225.33c3.1.38 3.07 3.56 1.33 5.34-3.09-.38-3.06-3.56-1.33-5.34M377.33 902.67c3.82-.27 7.28-.16 6.67 4-3.52-.04-8.36 1.24-6.67-4M384 44h-4c-.56-2.79.92-3.53 1.33-5.33 4.02-1.35 2.36 2.97 2.67 5.33M380 196c.56 2.79-.92 3.53-1.33 5.33-1.75-.46-2.1-2.34-4-2.66.32-2.35 2.29-3.04 5.33-2.67M376 801.33c.7 6.56 4.3 17.6 4 28-.12 4.07-2.59 8.98-2.67 13.34-.3 15.58 4.2 32.36 1.34 49.33-8.64-16.08-1.72-46.28-8-65.33.44-3.12 1.6-5.51 2.66-8C368.9 792.3 369.8 763.4 372 728c4.67 7.53.8 17.13 1.33 25.33.51 7.83 3.78 16.06 4 24 .23 7.79-2.18 16.02-1.33 24M380 244c-.25 1.08-1.33 1.33-1.33 2.67H376v-4c2.16-.38 2.3 1.26 4 1.33M378.67 62.67v8c-3.51 3.22-9.83 3.22-13.34 0 .16-3.84-.73-8.74 1.34-10.67 5.44-1.48 8.1-.28 12 2.67M377.33 928c4.31 2.72 6.04 13.81 0 16-8.37-.83-5.32-14.16 0-16M370.67 620c3.13 3.79 4.1 13.16 4 20-.08 5.48-.42 13.8-4 16 1.01-13.9-2.14-24.57 0-36M373.33 245.33c2.23 2.66-.12 1.7 0 5.34h-2.66c.12-3.64-2.23-2.68 0-5.34h2.66M372 670.67c3.68 1.73 2.67 7.21 1.33 10.66-4.68-.73-2.13-7.73-1.33-10.66M369.33 689.33c6.83.99 4.38 6.1 4 12-3.02-2.12-4.88-10.14-4-12M372 706.67c3.05 2.28.5 10.17 1.33 14.66-5.21-2.26-.49-11.84-1.33-14.66M373.33 585.33c-1.2 8.16-.32 28.06-10.66 29.34-10.11 1.25-13.68-10.31-5.34-18.67 5.83-.93 5.94 3.85 10.67 4 1.36-5.39-.92-18.61 0-28 5.75 2.19-1.5 11 5.33 13.33M368 185.33c4.61-.93 4.79 4.68 2.67 6.67-4.62.93-4.79-4.68-2.67-6.67M372 172c-.25 1.08-1.33 1.33-1.33 2.67H368v-4c2.16-.38 2.3 1.26 4 1.33M362.67 125.33c4.38 3.86 11.2 10.95 6.66 16-4.25 1.15-4.12-2.09-6.66-2.66 3.65-6.99-5.56-8.67 0-13.34M361.33 252c2.52-2.53 5.91.85 5.34 5.33-1.56-1.98-5.55-1.57-5.34-5.33"/>
    <path d="M352 569.33c4.59-2.46 10.95.84 10.67 6.67-.78 15.9-24.06.52-10.67-6.67M358.67 632c2.78 3.45 1.49 11.36-4 10.67-1.96-1.94-1.96-8.74 0-10.67h4M354.67 545.33a2.85 2.85 0 010 5.34c.12-3.64-2.23-2.68 0-5.34M353.33 234.67c.56 4.56-4 4-5.33 6.66-12.12-2.32.83-17.92 5.33-6.66M336 172c9.6 1.56 12.28 21.07 6.67 29.33-8.78-2.46-15.56-21.74-6.67-29.33M325.33 194.67c4.11-1 2.56 3.66 6.67 2.66-1.21 2.34-2.48 4.63-6.67 4-.14-3.32-2.49-4.13 0-6.66M324 993.33c9.27-4.89 9.27 11.56 0 6.67v-6.67M318.67 52a2.85 2.85 0 015.33 0c-2.65 2.23-1.7-.12-5.33 0M322.67 694.67c1.9 1.77 1.9 7.56 0 9.33-4.72.72-6.87-1.13-8-4 .05-4.4 3.78-5.1 8-5.33M309.33 208c7.96.44 12.18 8.85 9.34 16-9.92 1.7-14.42-10.92-9.34-16M318.67 688c-.38 3.1-3.56 3.07-5.34 1.33.38-3.09 3.56-3.06 5.34-1.33M314.67 534.67v2.66H312v-2.66h2.67M308 584c3.39.13 3.15 4.97 1.33 6.67-5.45.73-4.5-5.76-1.33-6.67M308 12v2.67c-6.5 1.33-2.47-7.1 0-2.67M304 636c1.33 1.77 2.2 4.03 4 5.33-8.81 30.3-26.07 52.16-46.67 70.67-1.85 1.7-.81 6.3-2.66 8-4.94-2.37-9.18 1.81-12 5.33-5.76-.9-9.74-3.6-14.67-5.33-1.61-14.05 8.99-15.9 8-29.33 9.84-18.62 28.27-28.63 41.33-44 8.92-2.19 10.99-11.24 22.67-10.67M281.33 548c4.84-5.1 17.11 4.9 24 2.67-1.21 4.57-8.36 3.2-13.33 4-4.17-1.6-3.33-8.23-10.67-6.67M293.33 510.67v2.66h-2.66v-2.66h2.66M276 324c2.21-8.16 12.28-.93 12 5.33-1.19.59-2.39 1.18-2.67 2.67-4.77-1-8.46-3.08-9.33-8M285.33 221.33c2.64 2.3-5.88 6.36-4 1.34.19-.52 2.83-2.36 4-1.34M282.67 62.67c4.89 5.85-3.7 5.06 0 0M281.33 524c3.9-1.96 3.9 5.96 0 4v-4M281.33 1022.67v1.33H272c3.05-3.23 4.72-1.61 9.33-1.33M276 333.33h2.67c-.22 1.55.29 2.38 1.33 2.67-.41 1.81-3.33 1.1-5.33 1.33a6.27 6.27 0 001.33-4M273.33 757.33c.98 3.64-2.65 2.68-2.66 5.34-2.35-.32-3.04-2.3-2.67-5.34h5.33M262.67 320c6.1.9-1.07 8.07 0 0M257.33 490.67c4.66-1.2 2.28 4.34 1.34 5.33-1.82-.41-1.11-3.33-1.34-5.33M236 452c4.75-10.27 26.85-12.4 33.33-6.67-5.76 6.78-27.45 24.67-33.33 6.67M250.67 421.33c2.36.31 6.68-1.34 5.33 2.67h-5.33c-.19 4.55-8.59 10.72-9.34 13.33-1.21 4.3-14.68-1.78-17.33-6.66-17.1 1.98-26.57-3.64-30.67-14.67 5.18-15.43 24.96-14.16 37.34-6.67 10.69-3.86 16.74 4.43 20 12M256 470.67v4h-4v-4h4M252 465.33c4.59 3.44-6.85 3.23 0 0M242.67 290.67c5.44-1.47 9.52-.56 10.66 5.33-.04 4.84-3.92 5.85-9.33 5.33-2.07-1.93-1.17-6.82-1.33-10.66M241.33 576c3.39.13 3.15 4.97 1.34 6.67-3.39-.14-3.15-4.98-1.34-6.67M226.67 36c-4.12-16.45 17.29-10.28 9.33 1.33-4.33.78-6.2-.9-9.33-1.33M234.67 509.33v5.34c-1.71 1.82-6.3 1.82-8 0v-5.34c3.9-1.2 4.09-1.2 8 0M224 56c3.92.97 5.63 4.16 5.33 9.33-3.92-.97-5.62-4.16-5.33-9.33M224 518.67c2.19 19.14-9.41 28.09-21.33 36-21.38 4-37.84-9.58-40-22.67-4.08-24.83 24.12-50.52 49.33-33.33 4.59 3.12 11.08 11.93 12 20M222.67 169.33a6.27 6.27 0 00-1.34 4c-3.09.43-5.12-.21-6.66-1.33v-4c2.8-2.93 5.93-.28 8 1.33M225.33 436c-12.74 3.93-17.8-1.55 0 0M213.33 460c1.95 1.16 5.16 1.05 4 5.33-4.97 2.67-8.22-2.2-4-5.33M212 600c.73 27.81-48.92 44.6-50.67 9.33-.8-16.2 9.23-28.53 25.34-30.66 12.77-1.7 24.92 5.66 25.33 21.33M220 482.67c-2.24 3.98-3.52 8.93-10.67 8-.16-6.39 4.44-8 10.67-8M212 285.33c-12.95 1.19-32.04-9.54-28-25.33 16.59-4.03 25.47 10.88 28 25.33M206.67 390.67V396c-4.59 1.04-6.38-.75-5.34-5.33h5.34M190.67 466.67c-6.99-19.38 25.85-10.23 10.66 2.66-4.88.44-7.41-1.48-10.66-2.66M196 485.33h5.33a6.27 6.27 0 00-1.33 4c-2.9.24-4.24-1.09-4-4M193.33 474.67c.15 5.04-2.61 7.17-6.66 8-2.71-2.58-3.11-5.36-1.34-9.34 3.3-.17 6.43-.2 8 1.34M186.67 0H192c-.83 3.25-5.57 5.95-5.33 0M173.33 390.67V396c-1.7 1.83-6.29 1.83-8 0v-5.33c3.91-1.2 4.1-1.2 8 0M170.67 405.33V412c-3.22-.55-2.9 2.44-6.67 1.33-5.56-3.76.08-12.58 6.67-8M165.33 500v5.33c-3.49.38-5.73-.49-5.33-4 1.19-1.04 3.01-1.44 5.33-1.33M162.67 168c.62 4.15-3.35 4.76-5.34 2.67.32-2.35 2.3-3.04 5.34-2.67M154.67 421.33c-.78-4.93 3.6-8.25 6.66-5.33-.25 3.75-2.32 5.68-6.66 5.33M154.67 534.67c1.94 1.16 4.22 2 4 5.33a4.98 4.98 0 01-6.67 0c-.97-3.64 2.65-2.68 2.67-5.33M148 413.33c.93 3.31 4.08 14-2.67 13.34-4.61-1.9-7-11.56-2.66-14.67 2.38-.17 2.81 1.63 5.33 1.33M129.33 310.67c5.94-3.67 13.2-2.15 12 8-4.66 5.61-15.17 2.17-12-8M133.33 466.67c-1.26-4.82 5.26-1.86 8-2.67-1.22 2.33-4.17 2.95-8 2.67M141.33 621.33a6.27 6.27 0 00-1.33 4c-3.5.38-5.73-.49-5.33-4a4.98 4.98 0 016.66 0M134.67 365.33c1.45 4.68-8.18 3.58-5.34-1.33 2.11.1 5.08-.64 5.34 1.33M128 350.67c3.75.25 5.68 2.32 5.33 6.66-1.54 1.12-3.57 1.76-6.66 1.34-1.59-3.98-.38-4.54 1.33-8M126.67 190.67c4.65-1.2 2.28 4.34 1.33 5.33-1.81-.41-1.1-3.33-1.33-5.33M124 428c.37 5.7-4.47 10.83-14.67 9.33-14.36-14.57 13.71-24.09 14.67-9.33M102.67 574.67C136.19 564.3 141 615.2 116 621.33c-30.65 7.54-41.9-37.64-13.33-46.66M120 360c-3.97-.03-4.53-3.47-8-4 2.13-3.33 7.87.92 8 4M106.67 350.67c2.9-.24 4.24 1.09 4 4-2.91.24-4.24-1.1-4-4M106.67 265.33v5.34c-4.18.61-5.95-1.16-5.34-5.34h5.34M104 321.33c-.59 1.64-1.7 2.74-4 2.67-.63-2.84 1.9-2.53 4-2.67M58.67 457.33c26.65-5.1 43.86 12.4 38.66 37.34C95.5 503.5 83 517.84 72 520c-18.83 3.7-41.84-6.99-42.67-26.67-.81-19.4 12.36-32.74 29.34-36M93.33 558.67c.38-3.1 3.56-3.07 5.34-1.34-.42 1.82-3.34 1.11-5.34 1.34M93.33 384c1.64.59 2.74 1.7 2.67 4-2.16.37-2.3-1.27-4-1.33.25-1.08 1.33-1.34 1.33-2.67M82.67 516c3.3.7 4.74 3.25 6.66 5.33-.69 1.98-1.97 3.36-2.66 5.34-4.62 1.05-5.63-1.48-8-2.67-1.16-5.16 3.25-4.75 4-8M84 553.33c.19 4.19-3.41 4.59-6.67 5.34-1.29-5.3 3.87-4.14 6.67-5.34M80 181.33c7.92-1.78 6.43 9.55-1.33 6.67-.43-3.1.21-5.12 1.33-6.67M80 614.67c3.1.37 3.07 3.56 1.33 5.33-2.16-1.3-3.06-3.56-1.33-5.33M58.67 401.33V404h-4v-2.67h4M36 72c13.68-5.47 23.3 6.12 20 16-5.12 15.36-32.81.81-20-16M34.67 566.67c.8 4.8-.48 7.52-4 8-4.27-.18-5.87-3.03-5.34-8 1.78-1.91 7.56-1.91 9.34 0M2.67 348c3.09.37 3.06 3.56 1.33 5.33-3.1-.37-3.07-3.56-1.33-5.33M4 152v2.67H0V152h4"/>
  </g>
</svg>
