<?xml version="1.0" encoding="utf-8"?>
<svg version="1.1" id="logo" xmlns="http://www.w3.org/2000/svg" xmlns:xlink="http://www.w3.org/1999/xlink" x="0px" y="0px" viewBox="0 0 144 130.1" xml:space="preserve">
<g>
	<path d="M1.1,44.9C0.6,44.9,0,45.4,0,46v37.2c0,0.5,0.4,1.1,1.1,1.1h8.5c0.5,0,1.1-0.4,1.1-1.1V70.5h3.9c7.7,0,13.8-4.7,13.8-13.1c0-8.4-6.2-12.6-13.8-12.6H1.1V44.9z M2.2,47.2h12.4c6.9,0,11.6,3.4,11.6,10.3c0,7-4.8,10.8-11.6,10.8H9.5c-0.7,0-1.1,0.7-1.1,1.1v12.7H2.2V47.2z M10.7,61.6v-7.7h1.2c3.2,0,5.4,0.9,5.4,3.8s-2.2,3.8-5.4,3.8L10.7,61.6L10.7,61.6z M9.6,63.8h2.3c3.4,0,7.6-1.3,7.6-6s-4.1-6.1-7.6-6.1H9.6c-0.7,0-1.1,0.7-1.1,1.1v9.9C8.4,63.4,9.1,63.8,9.6,63.8z"/>
	<path d="M44.6,46c0-0.5-0.5-1.1-1.1-1.1H35c-0.5,0-1.1,0.5-1.1,1.1v37.2c0,0.5,0.4,1.1,1.1,1.1h21.3c0.5,0,1.1-0.4,1.1-1.1v-7.4c0-0.5-0.5-1.1-1.1-1.1H44.6V46z M42.3,47.2v28.6c0,0.7,0.6,1.1,1.1,1.1h11.7v5.2h-19V47.2L42.3,47.2L42.3,47.2z"/>
	<path d="M84.4,67.2h-5.1l2.5-6.5L84.4,67.2z M87.1,68l-4.2-10.8c0,0-1.4-2-2.1,0L76.7,68c0,0-0.7,1.5,1.1,1.5h8.4C86,69.5,87.7,69.7,87.1,68z M86.8,45.6c-0.2-0.4-0.6-0.7-1-0.7H78c-0.5,0-0.9,0.3-1.1,0.7l-15,37.2c-0.7,1.7,1.1,1.5,1.1,1.5h9.1c0.5,0,0.9-0.3,1-0.7l2.5-6.7h12.6l2.5,6.7c0.2,0.5,0.6,0.7,1.1,0.7h9.1c1.8,0,1-1.5,1-1.5L86.8,45.6z M85,47.2l14.1,34.9h-6.6L90,75.4c-0.2-0.5-0.6-0.8-1-0.8H74.8c-0.5,0-0.9,0.3-1.1,0.8l-2.5,6.7h-6.6l14.1-34.9L85,47.2L85,47.2z"/>
	<path d="M106.8,44.9c-2.2,0-0.9,1.8-0.9,1.8l13.5,20.2v16.3c0,0.5,0.4,1.1,1.1,1.1h8.5c0.5,0,1.1-0.4,1.1-1.1V66.9l13.5-20.2c1.2-1.8-0.9-1.8-0.9-1.8h-10.2c-0.4,0-0.8,0.2-0.9,0.5l-6.8,10.5l-6.9-10.5c-0.2-0.3-0.5-0.5-0.9-0.5H106.8z M108.9,47.2h7.5l7.4,11.4c0,0,0.8,1.6,1.8,0l7.4-11.4h7.5L128,66c-0.1,0.2-0.2,0.4-0.2,0.6v15.6h-6.1V66.6c0-0.2-0.1-0.5-0.2-0.6L108.9,47.2z"/>
	<path d="M30.4,22.6C30.4,22.6,30.5,22.6,30.4,22.6C30.5,22.6,30.4,22.6,30.4,22.6z M29.4,18L29.4,18L29.4,18L29.4,18z M29.4,18.1c0,0.1,0,0.1,0,0.1S29.4,18.2,29.4,18.1z M29.4,18.3l-0.6,2.2L29.4,18.3L29.4,18.3z M22.4,38.4c0,0.2-0.3,0.4-0.3,0.6c0.1-0.7,0.1-1.3,0.2-2C22.3,37.5,22.5,37.9,22.4,38.4z M22.7,33.2c0.2-1.8,1-3,1.3-4.6c-0.5,2.4-1.1,4.8-1.6,7.2C22.5,34.9,22.6,33.9,22.7,33.2z M40.4,10.7C40.4,10.8,40.4,10.8,40.4,10.7c0.1,2.8-1.2,5.7-2.6,8c-0.7,1.2-1.5,2.4-2.4,3.5c-0.4,0.5-0.8,1-1.3,1.4c-0.3,0.4-1,0.9-1.4,1.3c0.3-0.3,1-0.8,1.3-1.1c0.6-0.6,1.2-1.3,1.7-2c0.9-1.1,1.7-2.3,2.4-3.5c-2.1,3.9-5.1,7.3-9,9.4c0.3-0.2,1.1-0.7,1.1-0.7c-0.1-0.1-1.6,0.8-1.8,0.9c0.4-1.1,0.8-2.2,1.3-3.3c0.1-0.3,1.2-2.8,1.2-2.8c-0.1,0-0.2,0.1-0.2,0.2c1.5-3,3.5-6.1,5.4-8.9C36.8,12.3,40.2,6.8,40.4,10.7L40.4,10.7z M40,5.8c-1.2,0.5-2.3,2.1-3.1,3.1c-0.5,0.6-1,1.2-1.5,1.8c-0.3,0.4-1.2,1.3-1.2,1.9c0,0,0,0,0.1,0l-0.5,0.8l0.3-0.6c-0.2,0.1-0.5,0.9-0.5,0.9c-1,1.5-2.1,3-3,4.6c-1,1.8-1.8,3.7-2.5,5.6c0.3-2,0.8-3.9,1.4-5.8c0.2-0.5,1.8-5.9,1.9-5.9c-0.1,0-1.7,4.5-1.8,4.8c0.7-2.3,1.5-4.6,2.4-6.8c-0.1,0.2-0.1,0.4-0.1,0.4c0.2,0,0.8-1.6,0.7-1.6l0.1-0.1c0.2-0.5,0.3-0.7,0-1.3s-1-1.7-1.8-1.2c-0.5,0.2-0.8,1.2-1,1.7c-0.1,0.2-0.1,0.5-0.2,0.7c-0.1,0.3-0.4,0.4-0.6,0.7c-0.4,0.8-0.7,1.8-1,2.8c-0.2,0.5-1.9,5.5-1.8,5.5c0.1,0,0.1-0.1,0.1-0.2c-0.1,0.4-0.2,0.7-0.3,1.1c0,0,0.1-0.3,0-0.3c-0.4,0-1.3,3.4-1.3,3.7c-0.1,0.8-0.2,1.5-0.5,2.3c-0.2,0.5-0.3,1-0.4,1.5c0,0-0.1,1.1,0,0.7c0,0.1,0,0.2,0,0.3c0,0,0-0.1-0.1-0.2c-0.1,0-0.2,1.1-0.2,1.2c-0.1,0.4-0.3,0.8-0.4,1.2c-0.4,1.2-0.6,2.4-0.8,3.7L22,37c-0.1,0.8-0.6,2.6,0.1,3.3c0-0.1,0-0.1,0-0.2c0,0,0,0.1,0.1,0.2c0.5,1.3,2.6,0.7,3.2-0.2c0,0.1,0.1,0.1,0.1,0.2c0.1-2.3,0.6-4.6,1.2-6.8c0.2-0.9,0.4-2.5,1-3.3c0-0.4,0.2-0.5,0.5-0.4c0.2,0,0.5,0,0.8,0c0.2,0,0.6,0,0.8-0.1c1.6-0.4,3.3-1.7,4.7-2.7c0.5-0.4,0.9-0.9,1.4-1.2c0.5-0.4,1.1-0.6,1.6-1.1c1.4-1.3,2.5-2.7,3.6-4.3s2-3.1,2.5-5c0.3-0.9,0.5-1.9,0.7-2.9c0-0.4,0.3-0.9,0.2-1.3c0,0-0.1,0.3-0.2,0.5c0.1-0.7,0.1-1.3,0-2.1c0.1,0.2,0.2,0.4,0.1,0.4c0.1,0,0-0.6,0-0.8c0,0.1-0.1-0.3,0-0.2C43.9,7.1,42,5,40,5.8z"/>
	<path d="M50,25.3v-0.4C50.1,25,50.1,25.1,50,25.3z M50.8,27.7c0,0,0.1-0.6,0.1-0.7l0.2-0.3L50.8,27.7z M49.7,25.8c-0.2,0.3-0.3,0.6-0.5,0.9l-0.9,1.6c-0.6,1.1-1.2,2.1-1.9,3.1c-0.2,0.3-1,1.6-1.4,1.5c-0.6-0.1-0.2-2.3-0.1-2.6c0.1-0.6,1.6-6.9,2.1-7.1c-0.7,0-2.3,7.5-2.4,8.1c0.1-2,0.7-4,1.3-5.8c0.4-1,1.1-3.5,2.4-3.6c0.7-0.1,1,1.4,1.2,1.9c0-0.1-0.5-1.2-0.6-1.2c-0.2,0.2,0.8,2.3,0.9,2.6C49.9,25.5,49.9,25.5,49.7,25.8z M61.1,24.4c-0.1-0.9-0.8,0-1,0.3c-0.4,0.8-0.8,1.7-1.3,2.5c-0.9,1.7-1.8,3.5-2.9,5.2c-3.6,5.5-1.6-3.8-1.9-3.7c-0.2,0.1-0.2,0.7-0.2,0.8c0.2-1.5,0.6-3.2,1.2-4.7c0.4-0.9,0.8-1.7-0.1-2.6c-1.6-1.7-3.2,0.1-4,1.5c-0.5-1.5-1.6-3.6-3.5-3.4c-0.9,0.1-1.4,0.6-1.9,1.1c-0.3,0.3-0.6,0.3-0.9,0.7c-0.5,0.4-0.8,1-1.1,1.5c-1.2,2.1-1.9,4.7-2.1,7.1c-0.1,1.1-0.1,2.4,0.4,3.5c0.3,0.6,1.1,2,2,1.8c0,0,0,0-0.2-0.1c0.6,0.1,1.2,0,1.7-0.4c0,0.1-0.4,0.3-0.4,0.3c0.5,0.6,3.4-3.6,3.6-4c0.4-0.8,0.7-1.6,1.1-2.4c0.3-0.6,0.8-1.4,1.1-2c0,0.3,0,0.6,0,0.6c-0.5,2.3-0.9,4.9,0.2,7.1c0.6,1.2,1.7,2.2,3.1,1.8c1.2-0.3,2.1-1.6,2.7-2.6c0.8-1.1,1.4-2.4,2.1-3.6c0.5-1.1,1-2.3,1.4-3.5C60.5,26.3,61.3,25.3,61.1,24.4z"/>
	<path d="M61.2,17.5C61.2,17.6,61.2,17.6,61.2,17.5C61.1,17.6,61.1,17.6,61.2,17.5C61.1,17.6,61.1,17.6,61.2,17.5z M61.5,16.7c0,0,0.1-0.1,0.1-0.3L61.5,16.7z M61.3,28.7L61.3,28.7L61.2,29L61.3,28.7C61.4,28.6,61.4,28.6,61.3,28.7z M61.2,19.2c0.1,0.1,0,0.3,0.3,0.4c0.3,0.1,0.4-0.1,0.7-0.2c0.5-0.2,0.8-0.8,1.1-1.2c0.1-0.1-0.1,0-0.1,0c0.5-0.5,0.1,0.1,0.5-0.3c0.4-0.4,0.5-0.9,0.8-1.4c-0.5,0.2-0.8,0.6-1.1,1c-0.3,0.6-0.6,0.8-1,1.1c0.4-0.4,0.6-0.8,1-1.5c0.1-0.1,0.2-0.2,0.4-0.3c-0.1-0.1-0.1-0.2,0-0.4s0.3-0.3,0.4-0.5c0.2-0.3,0.1-0.7,0.3-1c0.2-0.2,0.5-0.3,0.6-0.5c0.3-0.4,0.7-1,0.5-1.5s-0.7-1-1.1-1.3c-0.5-0.2-1.3-0.3-1.8,0c-0.1,0.1-0.6,0.2-0.4,0.4c0,0.1,0.1,0.1,0.2,0.1c-0.3,0.3-0.9,0.9,0,1.1c-0.1,0.1,0,0.4,0,0.5c0,0.3-0.4,1.8-0.7,2.6l0.4-0.8c-0.2,0.6-0.5,1.2-0.8,1.7c0.2-0.5-0.2,0.1-0.2,0.2c-0.5-0.2-0.2,1.1-0.2,1.2C60.9,18.8,61.2,19.2,61.2,19.2z M68.6,23.5c-0.1-0.5-0.7-0.3-0.9-0.1c-0.3,0.3-2.1,3.1-1.9,3.3c0.1,0,0.2,0,0.3-0.1c-0.5,0.7-1.5,1.6-2.2,2.3c-0.4,0.4-1.4,1.5-2.1,1.2c-1.4-0.5,0.9-5.6,0.7-5.6c-0.1,0-0.9,2.3-1.1,2.8c0.3-1.4,0.8-2.9,1.5-4.2c0,0.1-0.1,0.3,0,0.3s0.6-0.9,0.5-0.9c0,0-0.1,0-0.2,0.1c0.1-0.1,0.3-0.2,0.3-0.4c0-0.4-1-0.7-1.3-0.8c-0.8-0.2-1.6-0.3-2.1,0.2c-0.8,0.6-0.8,1.5-1.1,2.4c-0.1,0.2-0.5,3.2-0.4,3.2s0.1-0.1,0.1-0.2l-0.1,0.7c0,0,0-0.2-0.1-0.2c-0.3,0-0.1,1.5,0,1.7c0.2,0.7,0.8,1.2,1.3,1.7c0.3,0.3,0.5,0.7,0.9,0.9c0.5,0.3,0.2,0,0.5,0.1h-0.1c0,0.2,1.5,0.5,1.9,0.4c1.4-0.5,2.2-2.3,2.9-3.4c0.7-1,1.2-2,1.8-3.1C68.2,25.2,68.9,24.3,68.6,23.5z"/>
	<path d="M82.3,22.5c-0.3-0.9-0.8-0.2-1,0.1c-0.5,0.7-1.3,1.5-1.9,2.2c-0.8,0.9-1.7,1.8-2.6,2.7c-0.4,0.4-1,1.1-1.6,1.3c-0.1,0-0.4,0.1-0.3,0.2l0,0c0,0-0.1-0.6-0.1-0.7c0-0.5,0.1-1.1,0.2-1.6c0-0.1,0.3-1.5,0.3-1.5l-0.2,0.3c0.2-0.5,0.5-1,0.7-1.6c-0.6,0.7-1,1.4-1.2,2.2c-0.1,0.4-0.5,1.2-0.5,1.8c0-0.9,0.5-2.1,0.7-2.6c0.3-0.9,0.7-1.9,1.1-2.7c0.8-1.5,2.8-3,1.9-5c-0.7-1.8-2.2-1.7-3.3-0.5c-0.5,0.6-4.7,7.1-4.5,7.2c0,0,0.4-0.5,0.8-1.2l-2,3.7c0,0,0.3-0.7,0.3-0.8c0,0-0.3,0.3-0.3,0.4c0-0.8,0.2-1.7,0.2-2.6c0-0.3-0.1-0.6,0-0.9c0.1-0.5,0.2-1.1,0.4-1.6c0.1-0.3,0.4-0.6,0.5-1c0.1-0.5,0.1-0.7,0.4-1.2c0.3-0.4,0.7-0.9,1-1.3c0.6-1.1-0.6-1.6-1.3-1.7c-0.5,0-1,0-1.5,0.3c-0.5,0.4-0.3,0.6-0.4,1.1c-0.1,0.6-0.4,1.2-0.6,1.8c-0.2,0.9-0.4,1.7-0.6,2.6c-0.2,0.9-0.5,1.7-0.6,2.6c-0.1,0.7,0,1.3-0.1,2c0,0.7-0.1,1.2,0.3,1.8c0.5,0.6,1.6,1.6,2.3,0.6l0.2,0.3c0.5-1.5,1.4-3,2.1-4.5c0.3-0.7,0.9-1.2,1.3-1.9c0.6-1,1.2-2,1.9-3C74.2,20,73.8,21,73.8,21c0.1,0,0.1-0.1,0.2-0.2L73.5,22c0,0,0.1-0.3,0-0.3c-0.3-0.1-0.9,2.3-1,2.5c-0.2,0.9-0.2,1.7-0.1,2.6c0,0.4,0,0.9,0,1.3c0,0.4,0.1,0.9,0.4,1.3c0.1,0.2,0.3,0.5,0.6,0.7c0,0,0.5,0.4,0.3,0.1l0.3,0.2l-0.1-0.1c0,0.2,1.5,0.9,1.8,0.9c1.2,0.3,2.2-1.1,2.9-2c0.9-1.1,1.5-2.4,2.3-3.6C81.1,25,82.5,23.5,82.3,22.5z"/>
	<path d="M82.7,36c0,0-0.1,0-0.1-0.1L82.7,36z M89,10l0.3-0.9C89.2,9.5,89.1,9.8,89,10z M86.1,17.9c-0.2,0.8-0.5,1.5-0.7,2.3C85.6,19.4,85.8,18.6,86.1,17.9C86.1,17.8,86.1,17.9,86.1,17.9z M89.4,8.8l0.8-1.9C89.9,7,89.7,7.9,89.4,8.8z M87.1,13c-1.4,4-2.4,8.2-3.5,12.3c-0.5,1.9-1,3.8-1.2,5.7l-0.1,0.8c0.1-1.5,0.3-2.9,0.6-4.3c0.6-3.2,1.4-6.3,2.4-9.3c1.8-5.2,3.2-10.7,6-15.6C89.5,5.8,88.4,9.5,87.1,13z M94.5,10c-0.1-0.6-0.6-0.1-1,0c-1.6,0.2-3.2,0.4-4.7,0.6c0,0,0.1-0.2,0.2-0.5c-0.1,0.3-0.2,0.5-0.4,0.5c1-2.5,2-5.1,3.3-7.5c0,0.1-0.5,1.1-0.5,1.1c0.1,0,1.4-2.1,1.4-2.4c0-0.2-0.3,0.3-0.3,0.2c0.2-0.3,0.6-0.5,0.7-0.8c0.2-0.8-0.7-1.1-1.3-1.2c-1.3-0.1-2.6,0.2-3.3,1.3c-0.7,1-1.1,2.1-1.5,3.2c-0.2,0.5-0.5,0.7-0.8,1.1c-0.4,0.7-0.7,1.6-0.9,2.3c-0.3,0.7-0.5,1.5-0.7,2.2c-0.1,0.4-0.1,0.7-0.4,0.8c-0.3,0.2-1,0.1-1.4,0.2c-1.5,0.3-3.1,0.4-4.6,0.7c-0.8,0.1-1.6,0.2-2.3,0.5c-0.2,0.1-1,0.3-1.1,0.5c-0.2,0.5,0.8,0.4,1,0.4c1.5,0.1,3.5,0,5-0.4c1-0.3,2.1-0.3,3.2-0.5c-0.4,1.3-0.8,2.6-1.1,3.9l-0.3,1.4c-0.1,0.5-0.6,1.3-0.5,1.8c0,0.1,0.1-0.1,0.2-0.3c-0.1,0.6-0.3,1.2-0.4,1.9c0,0,0.1-0.5,0-0.5c-0.2,0-0.8,2.5-0.8,2.7c-0.3,1.2-0.6,2.5-0.7,3.8c-0.1,1.3-0.3,2.6-0.5,3.8c-0.1,0.7-0.2,1.3-0.2,1.9c0,0.3-0.1,0.7-0.1,1c0,0.1,0.1,0.6,0.1,0.4v0.8l-0.1-0.6c-0.2,0.3,0.1,1.6,0.2,1.8c0.2,0.8,0.7,1.5,1.5,1.9c0.7,0.4,1.7,0.8,2.4,0.3c1-0.6,1.7-1.8,2.2-2.6c1.2-1.8,2.4-3.6,3.5-5.4c1-1.7,2.1-3.4,2.9-5.2c0.5-1,1.5-2,1.7-3.1c0.1-0.5,0-1.2-0.7-1c-0.5,0.2-1.1,1.6-1.4,2.1c-1.3,1.9-2.4,3.9-3.7,5.8l-2,3.1c-0.3,0.4-0.6,0.9-1,1.3c-0.1,0.2-1.1,1.1-1,1.3c0,0.1,0.4-0.3,0.6-0.5c-0.2,0.3-0.4,0.5-0.6,0.7c0,0-0.8,0.5-0.9,0.4c-0.8-0.2-0.3-2.6-0.3-3.2c0.4-3.3,1.2-6.7,1.9-9.9c0.5-1.8,1-3.5,1.5-5.2c0.3-0.9,0.6-1.8,0.9-2.7l0.4-1.6l-0.4,0.9c0.2-0.7,0.5-1.9,0.7-1.9L88,11.9c0.1-0.1,0.1-0.2,0.2-0.3c0.4-0.3,1.6-0.1,2.1-0.2c0.4,0,0.8,0,1.1-0.2c0.2-0.1,0.1-0.2,0.4-0.3c0.5-0.1,1.1,0.1,1.6-0.1C93.9,11.1,94.6,10.6,94.5,10L94.5,10z"/>
	<path d="M105.6,26.5c-0.1,0.7-0.2,2.3,0.1,3.4c-0.6-1.7-0.1-4.1,0.4-5.6c0.4-1.2,0.8-2.2,1.4-3.4c0.3-0.4,0.6-0.9,0.9-1.2c-0.5,0.8-0.8,1.6-1.2,2.5C106.6,23.6,106,25.1,105.6,26.5z M122.6,17.7c-0.3-0.6-1.2,0-1.5,0.1c-0.5,0.1-1.1,0.2-1.6,0.3c-0.8,0.1-1.3,0.3-2,0.4c-0.5,0.1-1.1,0.2-1.5,0.3s-0.4,0.4-0.6,0.4c-0.3,0.1-0.7-0.1-1,0.1c-0.2,0.1-0.4,0.1-0.5,0.2s0,0.3,0,0.4c-0.4,0.5-0.7,0.8-0.5,1.5c0.2,0.9,0.5,0.6,1.2,0.4c0.9-0.3,2.1-0.3,2.9-0.9c-1.4,2.5-2.9,5.2-5.1,7c-0.7,0.5-2.3,1.9-3.3,1.5c-0.8-0.3-0.8-1.8-0.7-2.5c0.3-1.6,0.8-3.2,1.5-4.6c0.4-0.8,0.9-1.7,1.4-2.5c0.2-0.3,0.2-0.5,0.4-0.8c0.1-0.3,0.4-0.5,0.6-0.8c0.6-0.5,1.2-1,1.9-1.4s1.6-0.1,2.2-0.6c0.6-0.5,0.4-1.9-0.4-2.3c-1.2-0.6-3.6,1.4-4.6,0.2c-0.8-1,1.1-3.2,1.7-3.9c0.8-0.8,2.8-3,4.1-2.7c1.4,0.4-0.4,3.1-0.9,3.7c-0.2,0.3-0.5,0.5-0.4,0.8c0.1,0.8,1.1,0.6,1.6,0.3c0.8-0.5,1.7-2.2,1.9-3.1c0.6-2.6-2.2-5-4.7-4.1c-1.1,0.4-2.4,1.4-3.3,2.2s-2.1,1.8-2.5,3c-0.5,1.5-0.8,2.8,0.3,4.3c0.4,0.6,1.1,1.1,1.7,1.4c-2.3,1.6-3.9,4.2-4.9,6.9c-0.7,1.8-2.3,7,0.3,7.9c0.4,0.3,1.3,0.2,1.8,0.3c1.5,0.1,2.9,0.2,4.3-0.3c1.2-0.5,2.2-1.2,3.1-2.1c1.2-1.2,1.6-2.3,2.3-3.7c0.5-1.2,1-2.3,1.1-3.6c0.1-0.7-0.2-0.8,0.4-1.1c0.5-0.3,1-0.6,1.4-0.9C120.9,19.2,122.9,18.3,122.6,17.7z"/>
	<path d="M30.7,108.4l-0.4-1.7c0,0-0.7,0.4-1.5,0.4c-1.7,0-2.4-1.2-2.4-2.2s0.7-2.2,2.4-2.2c0.9,0,1.5,0.4,1.5,0.4l0.4-1.7c0,0-0.5-0.4-2.1-0.4c-2.1,0-4,1.7-4,3.9c0,2.1,1.9,3.8,4,3.8C30.2,108.8,30.7,108.4,30.7,108.4z"/>
	<polygon points="36.9,101.2 32.7,101.2 32.7,108.7 36.9,108.7 36.9,107.2 34.4,107.2 34.4,105.7 36.8,105.7 36.8,104.2 34.4,104.2 34.4,102.7 36.9,102.7"/>
	<polygon points="39.1,108.7 40.8,108.7 40.8,104.8 45.4,108.7 45.4,101.2 43.7,101.2 43.7,105.1 39.1,101.2"/>
	<polygon points="47.4,102.7 49.1,102.7 49.1,108.7 50.8,108.7 50.8,102.7 52.6,102.7 52.6,101.2 47.4,101.2"/>
	<path d="M56.1,104.6v-2c1,0,1.8,0.2,1.8,1C57.9,104.5,57,104.5,56.1,104.6z M54.4,101.2v7.4h1.7v-2.7c0.2,0,0.3,0,0.5,0l1.8,2.8h1.9l-2-3.1c0.7-0.3,1.4-0.9,1.4-2s-0.7-2.2-2.5-2.3L54.4,101.2L54.4,101.2z"/>
	<path d="M66.1,105.7h-1.7l0.8-2.2L66.1,105.7z M66,101.2h-1.6l-3,7.4h1.8l0.5-1.5h2.8l0.6,1.5h1.8L66,101.2z"/>
	<polygon points="72.5,101.2 70.9,101.2 70.9,108.7 75.1,108.7 75.1,107.2 72.5,107.2"/>
	<path d="M85.5,108.4l-0.4-1.7c0,0-0.7,0.4-1.5,0.4c-1.7,0-2.4-1.2-2.4-2.2s0.7-2.2,2.4-2.2c0.9,0,1.5,0.4,1.5,0.4l0.4-1.7c0,0-0.5-0.4-2.1-0.4c-2.1,0-4,1.7-4,3.9c0,2.1,1.9,3.8,4,3.8C85,108.8,85.5,108.4,85.5,108.4z"/>
	<path d="M87.3,104.9c0,2.1,1.7,3.9,3.7,3.9s3.7-1.8,3.7-3.9s-1.6-3.8-3.7-3.8S87.3,102.9,87.3,104.9z M89,104.9c0-1.2,0.9-2.1,2.1-2.1s2.1,1,2.1,2.1s-0.9,2.1-2.1,2.1S89,106.1,89,104.9z"/>
	<path d="M101.2,105.7h-1.7l0.8-2.2L101.2,105.7z M101.1,101.2h-1.6l-3,7.4h1.8l0.5-1.5h2.8l0.6,1.5h1.8L101.1,101.2z"/>
	<path d="M106.7,106.4l-0.8,1.4c3.1,2.2,5.6,0.4,5.6-1.4c0-2.1-3.3-2.3-3.3-3.1c0-0.6,1.3-1.1,2.4-0.2l0.7-1.4c-3-1.7-4.7,0-4.7,1.6c0,1.7,3.1,2,3.1,3.1C109.6,107.6,107.7,107.1,106.7,106.4z"/>
	<polygon points="113.2,102.7 114.9,102.7 114.9,108.7 116.6,108.7 116.6,102.7 118.4,102.7 118.4,101.2 113.2,101.2"/>
	<path d="M28.8,127h-1.7l0.8-2.2L28.8,127z M28.8,122.5h-1.6l-3,7.4H26l0.5-1.5h2.8l0.6,1.5h1.8L28.8,122.5z"/>
	<path d="M35.3,125.9v-2c1,0,1.8,0.2,1.8,1C37,125.7,36.1,125.8,35.3,125.9z M33.6,122.5v7.4h1.7v-2.8c0.2,0,0.3,0,0.5,0l1.8,2.8h1.9l-2-3.1c0.7-0.3,1.4-0.9,1.4-2s-0.7-2.2-2.5-2.3L33.6,122.5L33.6,122.5z"/>
	<polygon points="40.7,124 42.4,124 42.4,130 44.1,130 44.1,124 45.9,124 45.9,122.5 40.7,122.5"/>
	<path d="M56.1,129.7l-0.4-1.7c0,0-0.7,0.4-1.5,0.4c-1.7,0-2.4-1.2-2.4-2.2s0.7-2.2,2.4-2.2c0.9,0,1.5,0.4,1.5,0.4l0.4-1.7c0,0-0.5-0.4-2.1-0.4c-2.1,0-4,1.7-4,3.9c0,2.1,1.9,3.8,4,3.8C55.6,130.1,56.1,129.7,56.1,129.7z"/>
	<path d="M58,126.2c0,2.1,1.7,3.9,3.7,3.9s3.7-1.8,3.7-3.9s-1.6-3.8-3.7-3.8S58,124.2,58,126.2z M59.7,126.2c0-1.2,0.9-2.1,2.1-2.1s2.1,1,2.1,2.1s-0.9,2.1-2.1,2.1S59.7,127.4,59.7,126.2z"/>
	<polygon points="69.1,122.5 67.4,122.5 67.4,130 71.7,130 71.7,128.5 69.1,128.5"/>
	<polygon points="75.4,122.5 73.7,122.5 73.7,130 77.9,130 77.9,128.5 75.4,128.5"/>
	<polygon points="84.2,122.5 79.9,122.5 79.9,130 84.2,130 84.2,128.5 81.6,128.5 81.6,127 84.1,127 84.1,125.5 81.6,125.5 81.6,124 84.2,124"/>
	<path d="M92.3,129.7l-0.4-1.7c0,0-0.7,0.4-1.5,0.4c-1.7,0-2.4-1.2-2.4-2.2s0.7-2.2,2.4-2.2c0.9,0,1.5,0.4,1.5,0.4l0.4-1.7c0,0-0.5-0.4-2.1-0.4c-2.1,0-4,1.7-4,3.9c0,2.1,1.9,3.8,4,3.8C91.8,130.1,92.3,129.7,92.3,129.7z"/>
	<polygon points="94.1,124 95.9,124 95.9,130 97.6,130 97.6,124 99.3,124 99.3,122.5 94.1,122.5"/>
	<rect x="101.3" y="122.5" width="1.7" height="7.4"/>
	<polygon points="107.9,130 109.3,130 112.4,122.5 110.5,122.5 108.6,127.4 106.7,122.5 104.8,122.5"/>
	<polygon points="118.5,122.5 114.2,122.5 114.2,130 118.5,130 118.5,128.5 115.9,128.5 115.9,127 118.4,127 118.4,125.5 115.9,125.5 115.9,124 118.5,124"/>
</g>
</svg>
